<?xml version="1.0" ?><svg height="32" id="icon" viewBox="0 0 32 32" width="32" xmlns="http://www.w3.org/2000/svg"><defs><style>
      .cls-1 {
        fill: none;
      }
    </style></defs><path d="M28.707,19.293,26,16.5859V13a10.0136,10.0136,0,0,0-9-9.9492V1H15V3.0508A10.0136,10.0136,0,0,0,6,13v3.5859L3.293,19.293A.9993.9993,0,0,0,3,20v3a1,1,0,0,0,1,1h7v1a5,5,0,0,0,10,0V24h7a1,1,0,0,0,1-1V20A.9993.9993,0,0,0,28.707,19.293ZM19,25a3,3,0,0,1-6,0V24h6Z"/><rect class="cls-1" data-name="&lt;Transparent Rectangle&gt;" height="32" id="_Transparent_Rectangle_" width="32"/></svg>